<svg xmlns="http://www.w3.org/2000/svg" xmlns:xlink="http://www.w3.org/1999/xlink" width="300" height="300" viewBox="548958.0 4832898.0 240084.0 225024.0" preserveAspectRatio="xMinYMin meet"><g transform="matrix(1,0,0,-1,0,9890820.0)"><path fill-rule="evenodd" fill="#66cc99" stroke="#555555" stroke-width="1600.56" opacity="0.6" d="M 740250.0,4841790.0 L 739530.0,4841910.0 L 735510.0,4842630.0 L 719790.0,4845450.0 L 699390.0,4849110.0 L 650250.0,4857930.0 L 633210.0,4860990.0 L 608490.0,4865430.0 L 585450.0,4869570.0 L 558750.0,4874370.0 L 558090.0,4874490.0 L 557850.0,4874550.0 L 557850.0,4874730.0 L 557910.0,4875030.0 L 596790.0,5046150.0 L 597390.0,5048790.0 L 597450.0,5049030.0 L 598770.0,5049030.0 L 599490.0,5048910.0 L 600510.0,5048730.0 L 779250.0,5017050.0 L 779910.0,5016930.0 L 780150.0,5016870.0 L 780150.0,5016750.0 L 777630.0,5005530.0 L 776010.0,4998330.0 L 770370.0,4973370.0 L 769650.0,4970190.0 L 762690.0,4939530.0 L 759090.0,4923690.0 L 754890.0,4905270.0 L 749670.0,4882410.0 L 746490.0,4868490.0 L 741630.0,4847250.0 L 740370.0,4841790.0 L 740250.0,4841790.0 z" /></g></svg>
