<svg xmlns="http://www.w3.org/2000/svg" xmlns:xlink="http://www.w3.org/1999/xlink" width="100.0" height="100.0" viewBox="-2.392111038358411 43.57628323962917 3.076099419129119 2.125627595183971" preserveAspectRatio="xMinYMin meet"><g transform="matrix(1,0,0,-1,0,89.27819407444231)"><path fill-rule="evenodd" fill="#66cc99" stroke="#555555" stroke-width="0.06152198838258238" opacity="0.6" d="M -0.018925614181183322,43.69025167233527 L -0.027794329362504498,43.69156323793904 L -0.07729722652942489,43.699323289295776 L -0.27100654605866065,43.72950584696731 L -0.5226967315304101,43.768194811808925 L -1.1303841294878607,43.85916809061835 L -1.3415619883228185,43.88997968972016 L -1.6483224734396478,43.93399648438374 L -1.9346566634758766,43.97429972939809 L -2.2669726250178917,44.02013175050935 L -2.2751936680498663,44.02126461309197 L -2.2781814302425176,44.021823734811946 L -2.2781617671288914,44.02344423128986 L -2.277380351121652,44.02614032523904 L -1.7597494262912354,45.56215659056416 L -1.7515365883328546,45.58582990909724 L -1.7507197054937365,45.587981226697245 L -1.7338018313314199,45.58779493499952 L -1.724598428993458,45.586612413901925 L -1.7115630233215684,45.584845925706574 L 0.5587130884416485,45.25147717539505 L 0.5670400971671785,45.25013687999728 L 0.5700587726548147,45.24950234049133 L 0.5699911499349561,45.248424256156234 L 0.531690609103325,45.14861724027567 L 0.5071518003721449,45.084561417344254 L 0.4222352071786664,44.862452229222406 L 0.4114487372391862,44.83414874426651 L 0.3078015596471554,44.5611928167085 L 0.2546079103315265,44.42012369568792 L 0.1929237705532768,44.25603791925425 L 0.1167857779738054,44.052337455275534 L 0.07067945190107904,43.928264581096016 L 0.0006255346086956352,43.73889818271869 L -0.017438616525307038,43.690212847745066 L -0.018925614181183322,43.69025167233527 z" /></g></svg>