<svg xmlns="http://www.w3.org/2000/svg" xmlns:xlink="http://www.w3.org/1999/xlink" width="100.0" height="100.0" viewBox="118.81808370370422 -2.900782037037043 0.08174925925855803 0.08836500000000624" preserveAspectRatio="xMinYMin meet"><g transform="matrix(1,0,0,-1,0,-5.71319907407408)"><path fill-rule="evenodd" fill="#66cc99" stroke="#555555" stroke-width="0.001767300000000125" opacity="0.6" d="M 118.86238888888899,-2.815689814814815 L 118.862550925926,-2.815712962962964 L 118.868953703704,-2.817962962962966 L 118.870912037037,-2.8193148148148097 L 118.871907407407,-2.8214537037037055 L 118.871680555556,-2.8238194444444424 L 118.868986111111,-2.8309444444444414 L 118.870078703704,-2.8313981481481547 L 118.871569444444,-2.8324120370370434 L 118.87255092592599,-2.8339444444444437 L 118.876625,-2.8446111111111096 L 118.880037037037,-2.8519166666666727 L 118.88924074074102,-2.863365740740745 L 118.890134259259,-2.8651990740740736 L 118.890134259259,-2.8672268518518456 L 118.88841203703701,-2.874717592592592 L 118.89603703703702,-2.888796296296293 L 118.896560185185,-2.8913379629629636 L 118.89557870370402,-2.8937870370370384 L 118.893416666667,-2.8952546296296275 L 118.886671296296,-2.897361111111111 L 118.88462037037,-2.897509259259265 L 118.88272685185201,-2.896740740740734 L 118.88135648148202,-2.895199074074064 L 118.876287037037,-2.8858657407407415 L 118.86519907407401,-2.872226851851857 L 118.859273148148,-2.865680555555565 L 118.85005555555601,-2.859523148148153 L 118.84330555555601,-2.857611111111109 L 118.84001388888902,-2.8630092592592598 L 118.83865277777801,-2.864421296296298 L 118.836828703704,-2.8651203703703674 L 118.83483333333301,-2.864972222222216 L 118.824611111111,-2.8619027777777832 L 118.82226851851901,-2.8602685185185273 L 118.821375,-2.8575925925925847 L 118.821356481482,-2.8508333333333247 L 118.821828703704,-2.8488194444444384 L 118.82317129629601,-2.8472175925925884 L 118.82509722222201,-2.8463935185185196 L 118.834328703704,-2.8448009259259273 L 118.838851851852,-2.840518518518516 L 118.840736111111,-2.8394537037036955 L 118.84967592592601,-2.8369722222222133 L 118.852449074074,-2.833708333333337 L 118.851476851852,-2.830537037037035 L 118.85149074074101,-2.827851851851842 L 118.853013888889,-2.825662037037041 L 118.85556481481501,-2.823680555555553 L 118.855064814815,-2.822425925925925 L 118.854777777778,-2.8201805555555555 L 118.855601851852,-2.8180972222222276 L 118.857347222222,-2.816657407407412 L 118.859064814815,-2.815856481481472 L 118.86238888888899,-2.815689814814815 z" /></g></svg>